<?xml version="1.0" standalone="no"?>
<!DOCTYPE svg PUBLIC "-//W3C//DTD SVG 20010904//EN"
 "http://www.w3.org/TR/2001/REC-SVG-20010904/DTD/svg10.dtd">
<svg version="1.0" xmlns="http://www.w3.org/2000/svg"
 width="225.000000pt" height="225.000000pt" viewBox="0 0 225.000000 225.000000"
 preserveAspectRatio="xMidYMid meet">

<g transform="translate(0.000000,225.000000) scale(0.100000,-0.100000)"
fill="#000000" stroke="none">
<path d="M883 1563 c-128 -71 -229 -131 -225 -135 4 -4 110 -66 236 -139 174
-100 233 -129 245 -122 9 5 116 67 239 137 123 71 222 129 220 131 -17 12
-468 255 -475 255 -4 0 -112 -57 -240 -127z"/>
<path d="M1406 1234 c-125 -73 -232 -136 -237 -141 -5 -5 -8 -118 -7 -256 l3
-247 230 126 c127 69 233 129 238 133 4 4 6 122 5 262 l-3 255 -229 -132z"/>
<path d="M612 1103 l3 -257 225 -124 c124 -68 231 -126 238 -129 10 -4 12 46
10 247 l-3 252 -230 134 c-126 73 -233 134 -238 134 -4 0 -6 -116 -5 -257z"/>
</g>
</svg>
